#!OML:ASF X:\für Bonn\!DataBase\2005_08_10_Bjorn_Final\c3d\bjorn.ASF
:FULLY-SPECIFIED
:DEGREES
450
root 1.06933 18.8513 11.2795 -180.332 10.6408 177.325
lowerback 0.305397 0.337697 2.43711
upperback 13.8691 2.16992 0.230178
thorax 15.1402 2.0764 -0.618826
lowerneck -0.141865 -0.547886 4.47609
upperneck 16.0051 3.02639 -15.8308
head 5.02688 1.50197 -5.57163
rclavicle -2.26615e-014 -1.43125e-014
rhumerus -58.9883 -44.0336 -34.1825
rradius 13.1363
rwrist 52.2328
rhand -6.64338 -0.476928
rfingers 7.12502
rthumb 19.2138 -29.5478
lclavicle -2.26615e-014 -1.43125e-014
lhumerus 140.615 159.779 249.759
lradius 12.8893
lwrist -54.3677
lhand -1.42959 -4.48772
lfingers 7.12502
lthumb 24.2204 24.0027
rfemur 520.782 -168.403 -523.51
rtibia 40.2158
rfoot -18.2004 12.453
rtoes -13.5994
lfemur 354.807 6.4832 340.723
ltibia 45.4411
lfoot -20.5273 7.52293
ltoes -23.4984
451
root 1.05287 18.8587 11.3381 -180.185 10.4569 177.476
lowerback 0.16871 0.324316 2.37183
upperback 13.8412 2.14001 0.246681
thorax 15.1884 2.04757 -0.56482
lowerneck 0.234609 -0.505942 4.43328
upperneck 15.5291 2.97608 -15.7649
head 4.81 1.49886 -5.53727
rclavicle 2.82274e-014 2.70347e-014
rhumerus -58.2471 -45.3581 -34.3941
rradius 13.3724
rwrist 51.4739
rhand -7.46057 -0.756301
rfingers 7.12502
rthumb 18.4278 -29.9034
lclavicle 2.82274e-014 2.70347e-014
lhumerus 141.992 159.897 250.597
lradius 12.9942
lwrist -53.5231
lhand -2.49773 -4.50794
lfingers 7.12502
lthumb 23.1959 24.1153
rfemur 520.5 -168.106 -523.317
rtibia 40.1105
rfoot -17.9262 12.5725
rtoes -13.5156
lfemur 355.473 6.33092 340.811
ltibia 44.968
lfoot -20.4951 7.22083
ltoes -23.253
452
root 1.03525 18.8663 11.3969 -180.037 10.2431 177.643
lowerback 0.0455897 0.309488 2.33763
upperback 13.7927 2.10176 0.259922
thorax 15.203 2.01695 -0.534802
lowerneck 0.641328 -0.466443 4.38405
upperneck 15.0619 2.91965 -15.6602
head 4.59058 1.49534 -5.49043
rclavicle -4.77083e-015 -1.59028e-014
rhumerus -57.1543 -46.4513 -35.2035
rradius 13.6929
rwrist 49.998
rhand -8.11921 -1.00137
rfingers 7.12502
rthumb 17.7941 -30.2073
lclavicle -4.77083e-015 -1.59028e-014
lhumerus 143.401 160.118 251.43
lradius 13.0944
lwrist -52.7545
lhand -3.57893 -4.59321
lfingers 7.12502
lthumb 22.1583 24.1569
rfemur 520.223 -167.796 -523.109
rtibia 40.0059
rfoot -17.635 12.6655
rtoes -13.3562
lfemur 356.114 6.17746 340.921
ltibia 44.3965
lfoot -20.3499 6.96293
ltoes -22.9891
453
root 1.01722 18.8732 11.4568 -179.906 10.04 177.773
lowerback -0.0467783 0.306351 2.27774
upperback 13.7171 2.07879 0.248858
thorax 15.1646 1.98972 -0.518795
lowerneck 1.12826 -0.43355 4.36165
upperneck 14.5655 2.8473 -15.5375
head 4.34774 1.49021 -5.44377
rclavicle -1.35174e-014 -1.51076e-014
rhumerus -55.3457 -46.9249 -37.1617
rradius 14.1974
rwrist 47.3623
rhand -8.74408 -1.32706
rfingers 7.12502
rthumb 17.1928 -30.5865
lclavicle -1.35174e-014 -1.51076e-014
lhumerus 144.831 160.52 252.297
lradius 13.2501
lwrist -51.8423
lhand -4.49413 -4.59853
lfingers 7.12502
lthumb 21.2794 24.2533
rfemur 519.937 -167.448 -522.94
rtibia 39.912
rfoot -17.3299 12.8039
rtoes -13.1188
lfemur 356.758 6.046 341.003
ltibia 43.7259
lfoot -20.1968 6.60804
ltoes -22.4297
454
root 0.998834 18.8782 11.5178 -179.753 9.83006 177.926
lowerback -0.129793 0.309782 2.21711
upperback 13.6114 2.0541 0.264661
thorax 15.081 1.95586 -0.475272
lowerneck 1.5896 -0.405841 4.30226
upperneck 14.1343 2.78326 -15.3929
head 4.13082 1.4868 -5.38493
rclavicle -4.05521e-014 1.51076e-014
rhumerus -53.1543 -46.9898 -39.6636
rradius 14.7971
rwrist 44.0047
rhand -9.51821 -1.5545
rfingers 7.12502
rthumb 16.4476 -30.8773
lclavicle -4.05521e-014 1.51076e-014
lhumerus 146.265 161.274 253.353
lradius 13.543
lwrist -50.4067
lhand -5.26429 -4.56574
lfingers 7.12502
lthumb 20.5395 24.3677
rfemur 519.621 -167.138 -522.741
rtibia 39.8378
rfoot -17.0395 12.9026
rtoes -12.955
lfemur 357.389 5.96511 341.123
ltibia 42.9503
lfoot -19.9974 6.13997
ltoes -22.0225
455
root 0.979459 18.8821 11.5799 -179.595 9.61266 178.06
lowerback -0.235951 0.302165 2.14564
upperback 13.5265 2.02084 0.270145
thorax 15.0386 1.91969 -0.435965
lowerneck 1.91439 -0.369413 4.19692
upperneck 13.7517 2.72858 -15.2064
head 3.95367 1.47756 -5.30508
rclavicle -3.10104e-014 9.54166e-015
rhumerus -50.7756 -46.8965 -42.4238
rradius 15.4967
rwrist 40.2909
rhand -10.4219 -1.61085
rfingers 7.12502
rthumb 15.5773 -31.0035
lclavicle -3.10104e-014 9.54166e-015
lhumerus 147.78 162.2 254.479
lradius 13.8854
lwrist -48.7971
lhand -6.07619 -4.52083
lfingers 7.12502
lthumb 19.7591 24.4949
rfemur 519.276 -166.796 -522.565
rtibia 39.7856
rfoot -16.7237 13.0568
rtoes -12.5688
lfemur 358.015 5.92235 341.236
ltibia 42.0737
lfoot -19.7876 5.47277
ltoes -21.6822
456
root 0.959689 18.885 11.6428 -179.451 9.41003 178.212
lowerback -0.343199 0.303655 2.11119
upperback 13.4742 2.00884 0.258475
thorax 15.0411 1.90379 -0.430972
lowerneck 2.0302 -0.332934 4.1317
upperneck 13.4856 2.68267 -15.0052
head 3.84884 1.46041 -5.22821
rclavicle -1.63003e-014 1.82882e-014
rhumerus -48.4721 -46.964 -45.0514
rradius 16.1918
rwrist 36.6934
rhand -11.3528 -1.52542
rfingers 7.12502
rthumb 14.6806 -30.9857
lclavicle -1.63003e-014 1.82882e-014
lhumerus 149.38 163.371 255.612
lradius 14.2449
lwrist -47.0509
lhand -7.07359 -4.64321
lfingers 7.12502
lthumb 18.8 24.4683
rfemur 518.925 -166.432 -522.364
rtibia 39.755
rfoot -16.4435 13.2093
rtoes -12.5645
lfemur 358.67 5.93385 341.381
ltibia 41.1049
lfoot -19.5721 4.83668
ltoes -21.783
457
root 0.938776 18.8872 11.7062 -179.31 9.21291 178.327
lowerback -0.44892 0.313296 2.05315
upperback 13.4164 2.01058 0.230425
thorax 15.036 1.89228 -0.429708
lowerneck 2.11065 -0.300394 4.0968
upperneck 13.2303 2.63386 -14.8186
head 3.75338 1.4403 -5.16169
rclavicle 2.94201e-014 2.82274e-014
rhumerus -46.1024 -46.9217 -47.7485
rradius 16.9023
rwrist 33.063
rhand -12.396 -1.41713
rfingers 7.12502
rthumb 13.6754 -30.9478
lclavicle 2.94201e-014 2.82274e-014
lhumerus 150.971 164.831 256.755
lradius 14.6079
lwrist -45.1941
lhand -8.29031 -4.82527
lfingers 7.12502
lthumb 17.6295 24.3955
rfemur 518.561 -166.08 -522.204
rtibia 39.7352
rfoot -16.1455 13.3648
rtoes -12.4073
lfemur 359.325 5.89192 341.461
ltibia 40.0562
lfoot -19.3673 4.43038
ltoes -22.4595
458
root 0.918455 18.8883 11.7701 -179.154 8.99699 178.444
lowerback -0.567801 0.31182 1.96939
upperback 13.3434 1.99227 0.217648
thorax 15.0181 1.86472 -0.40054
lowerneck 2.17845 -0.251392 4.02902
upperneck 13 2.61258 -14.612
head 3.67033 1.43207 -5.08285
rclavicle 1.03368e-014 2.8625e-014
rhumerus -43.7361 -46.7673 -50.4245
rradius 17.6731
rwrist 29.5018
rhand -13.3713 -1.20845
rfingers 7.12502
rthumb 12.7353 -30.8001
lclavicle 1.03368e-014 2.8625e-014
lhumerus 152.484 166.353 257.835
lradius 15.0182
lwrist -43.3435
lhand -9.53879 -5.09052
lfingers 7.12502
lthumb 16.4277 24.2339
rfemur 518.177 -165.729 -522.034
rtibia 39.7262
rfoot -15.8497 13.4844
rtoes -12.2121
lfemur 359.96 5.81756 341.541
ltibia 38.9522
lfoot -19.2107 4.25982
ltoes -23.5016
459
root 0.896362 18.8902 11.8351 -178.995 8.77771 178.591
lowerback -0.660062 0.324257 1.93792
upperback 13.2582 1.98788 0.204823
thorax 14.9704 1.84959 -0.400222
lowerneck 2.18052 -0.227497 3.9917
upperneck 12.8364 2.57011 -14.4183
head 3.61647 1.41061 -5.01452
rclavicle -1.13307e-014 -3.06128e-014
rhumerus -41.4509 -46.5828 -52.9992
rradius 18.4554
rwrist 26.186
rhand -14.3254 -0.959526
rfingers 7.12502
rthumb 11.8153 -30.6062
lclavicle -1.13307e-014 -3.06128e-014
lhumerus 153.961 168.124 258.875
lradius 15.466
lwrist -41.3834
lhand -10.7534 -5.44994
lfingers 7.12502
lthumb 15.2581 23.9673
rfemur 517.777 -165.388 -521.832
rtibia 39.7202
rfoot -15.5387 13.5998
rtoes -11.9356
lfemur 360.578 5.7165 341.648
ltibia 37.8128
lfoot -19.1038 4.14294
ltoes -24.4937
460
root 0.874421 18.8902 11.9016 -178.838 8.53076 178.735
lowerback -0.736825 0.325243 1.90751
upperback 13.1682 1.96854 0.184247
thorax 14.9066 1.82805 -0.411911
lowerneck 2.11535 -0.197702 3.94973
upperneck 12.7348 2.54136 -14.1974
head 3.59383 1.39194 -4.93685
rclavicle -1.78906e-014 -1.63003e-014
rhumerus -39.1986 -46.2853 -55.554
rradius 19.2858
rwrist 23.081
rhand -15.1277 -0.665963
rfingers 7.12502
rthumb 11.0416 -30.3555
lclavicle -1.78906e-014 -1.63003e-014
lhumerus 155.387 169.986 259.816
lradius 15.9469
lwrist -39.3913
lhand -11.9405 -5.85322
lfingers 7.12502
lthumb 14.1143 23.6474
rfemur 517.374 -164.997 -521.626
rtibia 39.7213
rfoot -15.2481 13.7273
rtoes -11.8194
lfemur 361.163 5.62624 341.77
ltibia 36.6645
lfoot -19.051 4.02237
ltoes -25.3087
